<?xml version="1.0" ?><!DOCTYPE svg  PUBLIC '-//W3C//DTD SVG 1.1//EN'  'http://www.w3.org/Graphics/SVG/1.1/DTD/svg11.dtd'><svg enable-background="new 0 0 512 512" version="1.1" viewBox="0 0 512 512" xml:space="preserve" xmlns="http://www.w3.org/2000/svg" xmlns:xlink="http://www.w3.org/1999/xlink"><g id="Layer_1"><circle cx="256" cy="256" fill="#42A5F5" r="238.2"/></g><g id="Layer_2"><g id="Layer_2_1_"><g><path d="M291.8,326.5c-0.1-0.5-0.2-1-0.3-1.5     c-0.3-1.7,0-3.5-1.7-4.5c-7.9-21.6-15.8-43.1-23.6-64.8c-0.3,0.1-0.5,0.1-0.8,0.2c-1.7,4.5-3.2,9.1-4.7,13.5     c-3.2,9.3-6.5,18.6-9.6,27.9c-2.7,7.6-5.1,15.4-7.7,23.1c-2.4,7.1-5,14.2-7.4,21.5c-2.7,7.7-5.4,15.6-8,23.3     c-2.9,8.3-5.9,16.6-8.8,24.9c-0.6,1.5-1.5,2.4-3.4,2.4c-2.9-0.1-5.7-0.2-8.6,0.1c-2.2,0.2-3.2-0.8-3.8-2.6     c-4.3-11.9-8.6-23.7-12.9-35.7c-5.4-14.8-10.7-29.4-16.1-44.1c-4.2-11.6-8.4-23.2-12.6-34.8c-6.2-16.9-12.4-33.8-18.6-50.8     c-5.5-15-10.8-29.9-16.2-45c-0.6-1.9-1.7-2.6-3.5-2.6c-3.6,0-7.2,0.2-10.8-0.2c-4.4-0.5-7.6-3.9-7.4-8.2c0.2-4,3.7-7.2,8-7.3     c16.6-0.2,33.2-0.3,49.7-0.6c8-0.2,16-0.8,23.9-1.4c4.3-0.3,7.2,1.4,7.5,5.1c0.3,3.7-1.9,6.2-6.1,6.7c-4.4,0.4-9,0.8-13.4,1.1     c-2.1,0.1-2.8,0.7-2.1,3c4.2,12.3,8.3,24.7,12.4,36.9c8.8,26.2,17.5,52.4,26.3,78.5c3.9,11.8,7.9,23.5,11.9,35.3     c0.5,1.4,1.1,3,1.8,4.4c0.2,0.6,0.3,1.3,1.2,1.3c0.9-0.1,0.9-0.8,1.1-1.4c2-5.6,3.8-11.2,5.7-16.8c2.7-7.8,5.2-15.6,7.8-23.4     c2.6-7.6,5.1-15.3,7.6-22.9c2-5.9,4-11.8,6-17.6c1.3-3.9,2.7-7.9,3.9-11.9c1-3.2-1.1-5.7-2.1-8.4c-2.5-7.4-5.3-14.8-7.9-22.1     c-3.2-8.7-6.4-17.4-9.6-26.1c-0.7-2.1-1.7-4-2.2-6.1c-0.4-1.8-1.1-2.3-2.9-2.5c-4.5-0.3-9.1-0.8-13.6-1.3     c-3.8-0.4-5.8-2.8-5.5-6.2c0.2-3.4,2.7-5.5,6.4-5.4c9.9,0.3,19.7,1.2,29.7,1.7c12.8,0.4,25.5-0.2,38.3-0.9     c3.5-0.2,7-0.5,10.5-0.7c3.4-0.1,5.6,1.9,6,5.2c0.4,3-1.5,6-4.7,6.4c-5,0.7-10,1.1-15.1,1.4c-2,0.2-2.6,0.3-1.8,2.7     c3.3,9.6,6.4,19.2,9.5,28.9c1.2,3.7,2.5,7.4,3.7,11.1c0,0.7-0.2,1.7,0.8,2c0.1,0.3,0.1,0.7,0.2,1c0,1.5-0.1,3.2,1.5,4.1     c0.1,0.3,0.1,0.7,0.2,1c0,1.5-0.1,3.2,1.5,4.1c0.3,1.1,0.6,2.2,0.9,3.2c0,0.7-0.2,1.7,0.8,2c0.1,0.3,0.1,0.7,0.2,1     c0,1.7-0.1,3.2,1.5,4.1c0.1,0.3,0.1,0.7,0.2,0.9c-0.1,1.7-0.1,3.2,1.5,4.2c0.1,0.3,0.1,0.7,0.2,0.9c-0.1,1.7-0.1,3.2,1.5,4.2     c0,0.2,0.1,0.3,0.1,0.5c0.2,1.9-0.1,3.8,1.8,5.1c3.3,9.6,6.5,19.2,9.7,28.9c3,9.2,6,18.4,9.1,27.5c2.2,6.6,4.4,13.1,6.7,19.6     c0.2,0.6,0.2,1.3,1.1,1.3c0.9,0,0.8-0.8,1-1.3c2.8-9.2,5.8-18.2,8.5-27.4c3.3-11.5,7.3-22.7,11-34c4.4-13.5,7.3-27.4,5.6-41.9     c-1.2-9.7-4.4-18.9-9.1-27.4c-4.3-8.2-9.8-15.5-13.7-23.9c-6.2-13.5-4.6-26.8,5.7-35.9c10.9-9.6,34.4-8.6,42.9,10.8     c3.1,7,5,14.2,5.1,21.8c0.2,12.2,0.3,24.3-1.9,36.4c-2,10.7-5.4,20.9-9.1,31.2c-3.8,10.3-7.3,20.7-10.9,31.1     c-5,14.3-9.9,28.7-14.9,43c-3.7,10.6-7.2,21.2-10.9,31.8c-3.2,9.2-6.4,18.5-9.6,27.7c-2.1,6.1-3.8,12.3-6.6,18.1     c-0.6,1.2-1.2,1.8-2.5,1.8c-2.9-0.1-5.7-0.1-8.6,0c-1.8,0.1-2.7-0.8-3.3-2.3c-4.8-10.6-8.7-21.6-12.6-32.5     c-3.1-8.7-6.5-17.4-9.7-26c-0.2-0.4-0.2-0.9-0.3-1.3C293.2,328.6,293.5,327.1,291.8,326.5z" fill="none" stroke="#FAFAFA" stroke-miterlimit="10" stroke-width="10"/><path d="M310.5,253.3c-2-1.2-1.7-3.3-1.8-5.1     C310.6,249.5,310.4,251.4,310.5,253.3z" fill="none" stroke="#FAFAFA" stroke-miterlimit="10" stroke-width="10"/><path d="M289.8,320.4c1.7,1.1,1.3,3,1.7,4.5     C289.9,323.8,289.8,322.1,289.8,320.4z" fill="none" stroke="#FAFAFA" stroke-miterlimit="10" stroke-width="10"/><path d="M299.9,221.9c-1.7-0.9-1.5-2.6-1.5-4.1     C300,218.8,299.9,220.4,299.9,221.9z" fill="none" stroke="#FAFAFA" stroke-miterlimit="10" stroke-width="10"/><path d="M301.7,227.1c-1.7-0.9-1.5-2.6-1.5-4.1     C301.8,224,301.7,225.6,301.7,227.1z" fill="none" stroke="#FAFAFA" stroke-miterlimit="10" stroke-width="10"/><path d="M305.1,237.4c-1.7-0.9-1.5-2.6-1.5-4.1     C305.1,234.2,305.1,235.9,305.1,237.4z" fill="none" stroke="#FAFAFA" stroke-miterlimit="10" stroke-width="10"/><path d="M306.9,242.6c-1.7-0.9-1.5-2.6-1.5-4.2     C306.9,239.4,306.9,241,306.9,242.6z" fill="none" stroke="#FAFAFA" stroke-miterlimit="10" stroke-width="10"/><path d="M308.6,247.7c-1.7-0.9-1.5-2.6-1.5-4.2     C308.6,244.5,308.6,246.2,308.6,247.7z" fill="none" stroke="#FAFAFA" stroke-miterlimit="10" stroke-width="10"/><path d="M291.8,326.5c1.8,0.7,1.4,2.2,1.4,3.6     C291.7,329.2,292,327.7,291.8,326.5z" fill="none" stroke="#FAFAFA" stroke-miterlimit="10" stroke-width="10"/><path d="M298.3,216.8c-1-0.3-0.8-1.1-0.8-2     C298.2,215.3,298.6,216,298.3,216.8z" fill="none" stroke="#FAFAFA" stroke-miterlimit="10" stroke-width="10"/><path d="M303.5,232.3c-1-0.3-0.8-1.1-0.8-2     C303.4,230.8,303.8,231.4,303.5,232.3z" fill="none" stroke="#FAFAFA" stroke-miterlimit="10" stroke-width="10"/></g></g></g></svg>